<svg aria-hidden="true" style="position: absolute; width: 0; height: 0; overflow: hidden;" version="1.1" xmlns="http://www.w3.org/2000/svg" xmlns:xlink="http://www.w3.org/1999/xlink">
<defs>
<symbol id="icon-close" viewBox="0 0 24 24">
<path stroke-linejoin="round" stroke-linecap="round" stroke-miterlimit="4" stroke-width="1.875" d="M18 6l-12 12"></path>
<path stroke-linejoin="round" stroke-linecap="round" stroke-miterlimit="4" stroke-width="1.875" d="M6 6l12 12"></path>
</symbol>
<symbol id="icon-online" viewBox="0 0 24 24">
<path fill="#fff" style="fill: var(--color1, #fff)" d="M24 12c0 6.627-5.373 12-12 12s-12-5.373-12-12c0-6.627 5.373-12 12-12s12 5.373 12 12z"></path>
<path fill="#38cd3e" style="fill: var(--color2, #38cd3e)" d="M20 12c0 4.418-3.582 8-8 8s-8-3.582-8-8c0-4.418 3.582-8 8-8s8 3.582 8 8z"></path>
</symbol>
<symbol id="icon-heart-active" viewBox="0 0 24 24">
<path fill="#f4c550" style="fill: var(--color3, #f4c550); stroke: var(--color3, #f4c550)" stroke="#f4c550" stroke-linejoin="round" stroke-linecap="round" stroke-miterlimit="4" stroke-width="0.9231" d="M20.84 4.61c-0.511-0.511-1.117-0.916-1.785-1.193s-1.383-0.419-2.105-0.419-1.438 0.142-2.105 0.419c-0.667 0.277-1.274 0.682-1.785 1.193l-1.060 1.060-1.060-1.060c-1.032-1.032-2.431-1.611-3.89-1.611s-2.858 0.58-3.89 1.611c-1.032 1.032-1.611 2.431-1.611 3.89s0.58 2.858 1.611 3.89l8.84 8.84 8.84-8.84c0.511-0.511 0.916-1.117 1.193-1.785s0.419-1.383 0.419-2.105-0.142-1.438-0.419-2.105c-0.277-0.667-0.682-1.274-1.193-1.785z"></path>
</symbol>
<symbol id="icon-heart-inactive" viewBox="0 0 24 24">
<path stroke-linejoin="round" stroke-linecap="round" stroke-miterlimit="4" stroke-width="1.8462" d="M20.84 4.61c-0.511-0.511-1.117-0.916-1.785-1.193s-1.383-0.419-2.105-0.419c-0.722 0-1.438 0.142-2.105 0.419s-1.274 0.682-1.785 1.193l-1.060 1.060-1.060-1.060c-1.032-1.032-2.431-1.611-3.89-1.611s-2.858 0.58-3.89 1.611c-1.032 1.032-1.611 2.431-1.611 3.89s0.58 2.858 1.611 3.89l8.84 8.84 8.84-8.84c0.511-0.511 0.916-1.117 1.193-1.785s0.419-1.383 0.419-2.105-0.142-1.438-0.419-2.105c-0.277-0.667-0.682-1.274-1.193-1.785z"></path>
</symbol>
<symbol id="icon-book" viewBox="0 0 24 24">
<path stroke-linejoin="round" stroke-linecap="round" stroke-miterlimit="4" stroke-width="2.25" d="M22 6.2c0-1.12 0-1.68-0.218-2.108-0.192-0.376-0.498-0.682-0.874-0.874-0.428-0.218-0.988-0.218-2.108-0.218h-0.4c-2.24 0-3.36 0-4.216 0.436-0.753 0.383-1.365 0.995-1.748 1.748-0.436 0.856-0.436 1.976-0.436 4.216v11.6l0.1-0.15c0.695-1.042 1.042-1.563 1.501-1.94 0.406-0.334 0.874-0.584 1.377-0.737 0.568-0.173 1.194-0.173 2.447-0.173h1.375c1.12 0 1.68 0 2.108-0.218 0.376-0.192 0.682-0.498 0.874-0.874 0.218-0.428 0.218-0.988 0.218-2.108v-8.6z"></path>
<path stroke-linejoin="round" stroke-linecap="round" stroke-miterlimit="4" stroke-width="2.25" d="M2 6.2c0-1.12 0-1.68 0.218-2.108 0.192-0.376 0.498-0.682 0.874-0.874 0.428-0.218 0.988-0.218 2.108-0.218h0.4c2.24 0 3.36 0 4.216 0.436 0.753 0.383 1.365 0.995 1.748 1.748 0.436 0.856 0.436 1.976 0.436 4.216v11.6l-0.1-0.15c-0.695-1.042-1.042-1.563-1.501-1.94-0.406-0.334-0.874-0.584-1.377-0.737-0.568-0.173-1.194-0.173-2.447-0.173h-1.375c-1.12 0-1.68 0-2.108-0.218-0.376-0.192-0.682-0.498-0.874-0.874-0.218-0.428-0.218-0.988-0.218-2.108v-8.6z"></path>
</symbol>
<symbol id="icon-login" viewBox="0 0 24 24">
<path fill="none" stroke="#f4c550" style="stroke: var(--color3, #f4c550)" stroke-linejoin="round" stroke-linecap="round" stroke-miterlimit="4" stroke-width="2.4" d="M15 3h1.2c1.68 0 2.52 0 3.162 0.327 0.564 0.288 1.023 0.747 1.311 1.311 0.327 0.642 0.327 1.482 0.327 3.162v8.4c0 1.68 0 2.52-0.327 3.162-0.288 0.564-0.747 1.023-1.311 1.311-0.642 0.327-1.482 0.327-3.162 0.327h-1.2"></path>
<path fill="none" stroke="#f4c550" style="stroke: var(--color3, #f4c550)" stroke-linejoin="round" stroke-linecap="round" stroke-miterlimit="4" stroke-width="2.4" d="M10 7l5 5M15 12l-5 5M15 12h-12"></path>
</symbol>
</defs>
</svg>
